<svg width="23" height="23" viewBox="0 0 23 23" fill="none" xmlns="http://www.w3.org/2000/svg">
<g clip-path="url(#clip0_19_1682)">
<path d="M15.5767 7.42331C14.5424 6.38892 13.082 5.7196 11.5 5.7196C9.91802 5.7196 8.4577 6.35849 7.42331 7.42331C6.38892 8.4577 5.7196 9.91802 5.7196 11.5C5.7196 13.082 6.38892 14.5424 7.42331 15.5767C8.4577 16.6111 9.91802 17.2805 11.5 17.2805C13.082 17.2805 14.5424 16.6416 15.5767 15.5767C16.6111 14.5424 17.2805 13.082 17.2805 11.5C17.2805 9.91802 16.6416 8.4577 15.5767 7.42331ZM14.4815 14.4815C13.7209 15.2421 12.6561 15.6984 11.5 15.6984C10.3439 15.6984 9.27913 15.2421 8.51855 14.4815C7.75796 13.7209 7.30162 12.6561 7.30162 11.5C7.30162 10.3439 7.75796 9.27913 8.51855 8.51855C9.27913 7.75796 10.3439 7.30162 11.5 7.30162C12.6561 7.30162 13.7209 7.75796 14.4815 8.51855C15.2421 9.27913 15.6984 10.3439 15.6984 11.5C15.6984 12.6561 15.2421 13.7209 14.4815 14.4815Z" fill="white"/>
<path d="M22.209 10.709H19.8664C19.4405 10.709 19.0754 11.0741 19.0754 11.5C19.0754 11.9259 19.4405 12.291 19.8664 12.291H22.209C22.635 12.291 23 11.9259 23 11.5C23 11.0741 22.635 10.709 22.209 10.709Z" fill="white"/>
<path d="M11.5 19.0754C11.0741 19.0754 10.709 19.4405 10.709 19.8664V22.209C10.709 22.635 11.0741 23 11.5 23C11.9259 23 12.291 22.635 12.291 22.209V19.8664C12.291 19.4405 11.9259 19.0754 11.5 19.0754Z" fill="white"/>
<path d="M19.623 18.5278L17.9498 16.8545C17.6759 16.5503 17.1588 16.5503 16.8545 16.8545C16.5503 17.1588 16.5503 17.6455 16.8545 17.9498L18.5278 19.623C18.832 19.9273 19.3188 19.9273 19.623 19.623C19.9273 19.3188 19.9273 18.832 19.623 18.5278Z" fill="white"/>
<path d="M11.5 0C11.0741 0 10.709 0.365079 10.709 0.791005V3.1336C10.709 3.55952 11.0741 3.9246 11.5 3.9246C11.9259 3.9246 12.291 3.55952 12.291 3.1336V0.791005C12.291 0.365079 11.9259 0 11.5 0Z" fill="white"/>
<path d="M19.6534 3.37698C19.3492 3.07275 18.8624 3.07275 18.5582 3.37698L16.8849 5.05026C16.5807 5.35449 16.5807 5.84126 16.8849 6.1455C17.1587 6.44973 17.6759 6.44973 17.9802 6.1455L19.6534 4.47222C19.9577 4.16798 19.9577 3.68121 19.6534 3.37698Z" fill="white"/>
<path d="M3.1336 10.709H0.791005C0.365079 10.709 0 11.0741 0 11.5C0 11.9259 0.334656 12.291 0.791005 12.291H3.1336C3.55952 12.291 3.9246 11.9259 3.9246 11.5C3.9246 11.0741 3.55952 10.709 3.1336 10.709Z" fill="white"/>
<path d="M6.1151 16.8545C5.84129 16.5503 5.3241 16.5503 5.01986 16.8545L3.34658 18.5278C3.04235 18.832 3.04235 19.3188 3.34658 19.623C3.65082 19.9273 4.13759 19.9273 4.44182 19.623L6.1151 17.9498C6.41933 17.6455 6.41933 17.1588 6.1151 16.8545Z" fill="white"/>
<path d="M6.1151 5.05026L4.44182 3.37698C4.13759 3.07275 3.65082 3.07275 3.34658 3.37698C3.04235 3.68121 3.04235 4.16798 3.34658 4.47222L5.01986 6.1455C5.3241 6.44973 5.81087 6.44973 6.1151 6.1455C6.41933 5.84126 6.41933 5.35449 6.1151 5.05026Z" fill="white"/>
</g>
<defs>
<clipPath id="clip0_19_1682">
<rect width="23" height="23" fill="white"/>
</clipPath>
</defs>
</svg>
